<svg width="24px" height="24px" viewBox="0 0 24 24" version="1.1" xmlns="http://www.w3.org/2000/svg" xmlns:xlink="http://www.w3.org/1999/xlink" class="ng-scope">
    <!-- Generator: sketchtool 47.1 (45422) - http://www.bohemiancoding.com/sketch -->
    <title>ECC91EAA-8AB6-4169-B2AF-7E50C69CADAB</title>
    <desc>Created with sketchtool.</desc>
    <defs></defs>
    <g id="Sign-Up-Page" stroke="none" stroke-width="1" fill="none" fill-rule="evenodd">
        <g id="Sign-up-Web" transform="translate(-841.000000, -306.000000)">
            <g id="Group-10" transform="translate(786.000000, 306.000000)">
                <g id="Group-3" transform="translate(55.000000, 0.000000)">
                    <g id="Facebook">
                        <path d="M0,12 C0,5.37258267 5.37258267,0 12,0 C18.6274173,0 24,5.37258267 24,12 C24,18.6274173 18.6274173,24 12,24 C5.37258267,24 0,18.6274173 0,12 Z" id="back" fill="#3B5998"></path>
                        <path d="M12.8507775,18.6557384 L12.8507775,12.1271048 L14.6529659,12.1271048 L14.8917948,9.87730153 L12.8507775,9.87730153 L12.8538395,8.75125333 C12.8538395,8.16446999 12.9095917,7.85005807 13.7523821,7.85005807 L14.8790369,7.85005807 L14.8790369,5.6 L13.0765933,5.6 C10.9115687,5.6 10.1495362,6.69139664 10.1495362,8.52678259 L10.1495362,9.87755632 L8.8,9.87755632 L8.8,12.1273596 L10.1495362,12.1273596 L10.1495362,18.6557384 L12.8507775,18.6557384 Z" id="Shape" fill="#FFFFFF"></path>
                    </g>
                </g>
            </g>
        </g>
    </g>
</svg>