<svg width="25px" height="24px" viewBox="0 0 25 24" version="1.1" xmlns="http://www.w3.org/2000/svg" xmlns:xlink="http://www.w3.org/1999/xlink" class="ng-scope">
    <!-- Generator: sketchtool 47.1 (45422) - http://www.bohemiancoding.com/sketch -->
    <title>541557C0-18A2-49F2-B219-A1A22A430136</title>
    <desc>Created with sketchtool.</desc>
    <defs></defs>
    <g id="New-UI-Screens-V1.3-Final" stroke="none" stroke-width="1" fill="none" fill-rule="evenodd">
        <g id="Log-in" transform="translate(-82.000000, -285.000000)">
            <g id="Group-10" transform="translate(27.000000, 246.000000)">
                <g id="Group-2" transform="translate(55.000000, 39.000000)">
                    <g id="Google-+">
                        <path d="M0,12 C0,5.37258267 5.51265012,0 12.3128494,0 C19.1130487,0 24.6256989,5.37258267 24.6256989,12 C24.6256989,18.6274173 19.1130487,24 12.3128494,24 C5.51265012,24 0,18.6274173 0,12 Z" id="back" fill="#DC4E41"></path>
                        <path d="M12.5186289,11.6571429 L12.5186289,12.96 L14.7373323,12.96 C14.6479136,13.5191429 14.0666915,14.5994286 12.5186289,14.5994286 C11.1829359,14.5994286 10.0931446,13.5245714 10.0931446,12.2 C10.0931446,10.8754286 11.1829359,9.80057143 12.5186289,9.80057143 C13.2786885,9.80057143 13.7872578,10.1154286 14.0778689,10.3868571 L15.1397168,9.39342857 C14.4578987,8.77457143 13.5748882,8.4 12.5186289,8.4 C10.3558122,8.4 8.60655738,10.0991429 8.60655738,12.2 C8.60655738,14.3008571 10.3558122,16 12.5186289,16 C14.7764531,16 16.2742176,14.4582857 16.2742176,12.2868571 C16.2742176,12.0371429 16.2462742,11.8471429 16.2127422,11.6571429 L12.5186289,11.6571429 L12.5186289,11.6571429 Z" id="Shape" fill="#FFFFFF"></path>
                    </g>
                </g>
            </g>
        </g>
    </g>
</svg>
