<svg version="1.1" class="logo logo-st-full ng-scope" xmlns="http://www.w3.org/2000/svg" x="0px" y="0px" viewBox="0 0 200 68.3" xml:space="preserve">
    <g class="logo-st-full__text">
        <path d="M28.8,29.2v1.1c0,0.8,0.9,1.3,1.8,1.7l4.1,1.7c1.7,0.7,2.8,2,2.8,4V40c0,2-4.1,5.3-6.4,5.3c-1.5,0-3.7-1-5.4-1.9
        c-0.5-0.3-0.8-0.8-0.5-1.4l0.6-1.3c0.3-0.6,0.8-0.7,1.4-0.4c1.3,0.6,3.2,1.5,4,1.5c0.8,0,2.6-1.4,2.6-2.2v-1.3c0-1-0.9-1.5-2-2
        L28,34.7c-1.6-0.6-3-2-3-3.9v-2.2c0-2.1,4.3-5.3,6.5-5.3c1.4,0,3.6,1,5.1,1.8c0.5,0.3,0.6,0.9,0.5,1.4l-0.6,1.3
        c-0.2,0.5-0.8,0.6-1.3,0.4C34,27.7,32.3,27,31.6,27C30.8,27,28.8,28.3,28.8,29.2" ></path>
        <path d="M45,39.4c0,1,1.9,2.4,2.7,2.4c0.8,0,1.9-0.6,3.2-1.2c0.5-0.3,1.2-0.1,1.4,0.4l0.6,1.3c0.2,0.5,0.1,1-0.3,1.3
            c-1.6,0.9-3.4,1.8-4.9,1.8c-2.2,0-6.6-2.9-6.6-5.4V28.7c0-2.4,4.3-5.4,6.6-5.4c1.4,0,3.2,0.9,4.8,1.8c0.5,0.3,0.6,0.9,0.4,1.3
            l-0.6,1.3c-0.2,0.4-0.8,0.6-1.3,0.4c-1.2-0.6-2.4-1.2-3.2-1.2c-0.7,0-2.7,1.4-2.7,2.4V39.4z"></path>
        <path d="M63,36.6h-2.5v7.5c0,0.5-0.4,0.8-0.9,0.8h-2.1c-0.5,0-0.9-0.4-0.9-0.8V25.3c0-0.7,1-1.6,1.8-1.6h5.4c2.5,0,5.8,3.9,5.8,6.4
            c0,1.6-1.5,3.8-3,4.7c1.1,0.6,2.8,2.3,2.8,3.9v5.5c0,0.5-0.4,0.8-0.8,0.8h-2.2c-0.4,0-0.8-0.4-0.8-0.8v-5
            C65.4,38.1,64.1,36.6,63,36.6 M63.2,27h-2.8v6.3h2.8c1.2,0,2.4-2.1,2.4-3.2C65.7,28.9,64.3,27,63.2,27"></path>
        <path d="M77.8,41.6h6.2c0.5,0,0.8,0.4,0.8,0.8v1.7c0,0.5-0.4,0.8-0.8,0.8h-8.3c-0.7,0-1.8-1.2-1.8-1.8V25.4c0-0.6,1.2-1.8,1.9-1.8
            h8.2c0.5,0,0.8,0.4,0.8,0.8v1.7c0,0.5-0.4,0.8-0.8,0.8h-6.2v5.4h5.3c0.5,0,0.9,0.4,0.9,0.8V35c0,0.5-0.4,0.8-0.9,0.8h-5.3V41.6z"></path>
        <path d="M92.9,41.6h6.2c0.5,0,0.8,0.4,0.8,0.8v1.7c0,0.5-0.4,0.8-0.8,0.8h-8.3c-0.7,0-1.8-1.2-1.8-1.8V25.4c0-0.6,1.2-1.8,1.9-1.8
            h8.2c0.5,0,0.8,0.4,0.8,0.8v1.7c0,0.5-0.4,0.8-0.8,0.8h-6.2v5.4h5.3c0.5,0,0.9,0.4,0.9,0.8V35c0,0.5-0.4,0.8-0.9,0.8h-5.3V41.6z"></path>
        <path d="M107.9,32v12.1c0,0.5-0.4,0.8-0.9,0.8h-2c-0.5,0-0.9-0.4-0.9-0.8V24.5c0-0.5,0.4-0.8,0.9-0.8h1.7c0.6,0,0.9,0.3,1.2,0.8
            l5.7,12.3V24.5c0-0.5,0.4-0.8,0.9-0.8h2c0.5,0,0.9,0.4,0.9,0.8v19.7c0,0.5-0.4,0.8-0.9,0.8h-1.7c-0.6,0-1-0.4-1.2-0.8L107.9,32z"></path>
        <path d="M133.1,23.6c0.5,0,0.9,0.4,0.9,0.8v1.7c0,0.5-0.5,0.8-0.9,0.8h-4v17.1c0,0.5-0.4,0.8-0.9,0.8h-2.1c-0.5,0-0.9-0.4-0.9-0.8
            V27h-3.9c-0.5,0-0.9-0.4-0.9-0.8v-1.7c0-0.5,0.4-0.8,0.9-0.8H133.1z"></path>
        <path d="M141,44.1c0,0.5-0.4,0.8-0.8,0.8h-2.2c-0.5,0-0.8-0.4-0.8-0.8V24.5c0-0.5,0.4-0.8,0.8-0.8h2.2c0.5,0,0.8,0.4,0.8,0.8V44.1z"></path>
        <path d="M161,44.1c0,0.5-0.4,0.8-0.9,0.8H158c-0.5,0-0.9-0.3-0.9-0.8V30.7l-2.1,4.1c-0.2,0.4-0.5,0.6-0.9,0.6h-1.3
            c-0.5,0-0.8-0.2-1-0.6l-2.1-4.1v13.4c0,0.5-0.3,0.8-0.9,0.8h-2.1c-0.5,0-0.9-0.3-0.9-0.8V24.6c0-0.5,0.5-0.9,0.9-0.9h1.7
            c0.6,0,1,0.4,1.3,0.9l3.7,6.7l3.7-6.6c0.3-0.6,0.7-0.9,1.3-0.9h1.7c0.6,0,0.9,0.5,0.9,0.9V44.1z"></path>
        <path d="M169.8,41.6h6.2c0.5,0,0.8,0.4,0.8,0.8v1.7c0,0.5-0.4,0.8-0.8,0.8h-8.3c-0.7,0-1.8-1.2-1.8-1.8V25.4c0-0.6,1.2-1.8,1.9-1.8
        h8.2c0.5,0,0.8,0.4,0.8,0.8v1.7c0,0.5-0.4,0.8-0.8,0.8h-6.2v5.4h5.3c0.5,0,0.9,0.4,0.9,0.8V35c0,0.5-0.4,0.8-0.9,0.8h-5.3V41.6z"></path>
    </g>
    <path class="logo-st-full__top-left" d="M4.6,31.3c-2.5,0-4.6-2-4.6-4.6V13.1C0,5.9,5.9,0,13.1,0h13.7c2.5,0,4.6,2,4.6,4.6c0,2.5-2,4.6-4.6,4.6H13.1
        c-2.2,0-4,1.8-4,4v13.7C9.1,29.3,7.1,31.3,4.6,31.3" style="fill: #FFC23B;"></path>
    <path class="logo-st-full__bottom-right" d="M195.4,37c2.5,0,4.6,2,4.6,4.6v13.7c0,7.2-5.9,13.1-13.1,13.1h-13.7c-2.5,0-4.6-2-4.6-4.6c0-2.5,2-4.6,4.6-4.6h13.7
        c2.2,0,4-1.8,4-4V41.5C190.9,39,192.9,37,195.4,37" style="fill: #4346AF;"></path>
</svg>
